<svg xmlns="http://www.w3.org/2000/svg" version="1.1" xmlns:xlink="http://www.w3.org/1999/xlink" width="512" height="512" x="0" y="0" viewBox="0 0 297 297" style="enable-background:new 0 0 512 512" xml:space="preserve" class=""><g><path d="M287.55 260.218H149.47l131.846-131.846c10.437-10.437 10.437-27.419 0-37.856l-64.808-64.808c-10.437-10.437-27.419-10.436-37.856 0L11.788 192.573c-5.055 5.056-7.84 11.778-7.84 18.928s2.785 13.872 7.84 18.928l29.79 29.79H9.45a9.45 9.45 0 0 0 0 18.9h278.1c5.218 0 9.45-4.231 9.45-9.45 0-5.219-4.231-9.451-9.45-9.451zM192.016 39.072c3.069-3.069 8.063-3.067 11.128 0l64.808 64.808a7.814 7.814 0 0 1 2.305 5.565 7.82 7.82 0 0 1-2.305 5.564L159.309 223.651l-75.936-75.936L192.016 39.072zm-69.274 221.147H68.306l-43.154-43.155c-3.068-3.067-3.068-8.06 0-11.127l44.858-44.858 75.936 75.936-23.204 23.204z" fill="#ffffff" opacity="1" data-original="#000000" class=""></path></g></svg>